Coordinates
version=1
nRows=12
nColumns=28
inDegrees=yes

Units are S.I. units (second, meters, Newtons, ...)
Angles are in degrees.

endheader
time	pelvis_tilt	pelvis_list	pelvis_rotation	pelvis_tx	pelvis_ty	pelvis_tz	hip_flexion_r	hip_adduction_r	hip_rotation_r	knee_angle_r	ankle_angle_r	subtalar_angle_r	mtp_angle_r	hip_flexion_l	hip_adduction_l	hip_rotation_l	knee_angle_l	socket_flexion	socket_adduction	socket_rotation	socket_tx	socket_ty	socket_tz	foot_flex	lumbar_extension	lumbar_bending	lumbar_rotation
      0.00000000	      0.36013976	    -11.07116855	    -13.77920588	     -0.87431433	      0.98045268	      0.32506089	    -24.46804572	     10.32120898	     16.23597520	    -10.53611702	      9.20552126	    -11.44637296	     21.22262840	     28.73035218	    -18.42829899	      2.64160475	    -11.00758082	     -5.26449201	      3.16296269	      3.93196463	      0.00000000	      0.00049391	      0.00000000	      2.45859335	    -13.30295400	      7.65369156	     19.88747892
      0.00416667	      0.24706175	    -11.17610950	    -13.70571408	     -0.86866714	      0.97963974	      0.32450294	    -24.56028012	     10.40885959	     16.23864238	    -10.73018391	      9.09588492	    -11.44630950	     21.23335476	     28.54195658	    -18.42586112	      2.58840935	    -10.92078000	     -5.29815214	      3.11834616	      4.03378071	      0.00000000	     -0.00022033	      0.00000000	      2.09757981	    -13.09451220	      7.81800239	     19.91837664
      0.00833333	      0.16088325	    -11.22693104	    -13.63325785	     -0.86291900	      0.97888068	      0.32397653	    -24.65370738	     10.44757263	     16.28361319	    -10.96769732	      9.02208190	    -11.44780170	     21.23215241	     28.34696789	    -18.36175740	      2.57186418	    -10.92175209	     -5.35047772	      3.07865837	      4.05347073	      0.00000000	     -0.00068550	      0.00000000	      2.00427661	    -12.91168994	      7.88746493	     19.91792295
      0.01250000	      0.01558762	    -11.36900574	    -13.76773632	     -0.85712031	      0.97814387	      0.32363117	    -24.50209436	     10.53064855	     16.15790644	    -11.62426539	      8.56260084	    -11.53983619	     21.22217078	     28.05263431	    -18.50962738	      2.32359470	    -10.69640699	     -5.32535023	      3.03895815	      4.22886400	      0.00000000	     -0.00155330	      0.00000000	      1.47419885	    -12.77776944	      8.07607422	     19.90875248
      0.01666667	     -0.11852412	    -11.42970708	    -13.81976811	     -0.85101363	      0.97738694	      0.32327791	    -24.45450106	     10.55717735	     16.15570899	    -12.08980899	      8.27184153	    -11.59568158	     21.24487064	     27.78775446	    -18.53326714	      2.13140886	    -10.54730676	     -5.31964429	      3.00483976	      4.33885358	      0.00000000	     -0.00227210	      0.00000000	      1.14540949	    -12.57438587	      8.16884722	     19.92358528
      0.02083333	     -0.26293011	    -11.48755852	    -13.92571549	     -0.84479161	      0.97663520	      0.32293976	    -24.37009026	     10.55555444	     16.13624046	    -12.60890583	      7.90308392	    -11.67723220	     21.30085015	     27.49505768	    -18.57710185	      1.86967486	    -10.35660692	     -5.26604507	      2.96476189	      4.48498659	      0.00000000	     -0.00305872	      0.00000000	      0.84924137	    -12.36154693	      8.25296706	     19.96394722
      0.02500000	     -0.46863031	    -11.38226196	    -14.26621734	     -0.83807946	      0.97606178	      0.32311786	    -24.24701366	     10.32977379	     16.37624902	    -13.06152979	      7.38308571	    -11.93863800	     21.95119327	     26.98856843	    -18.60615672	      1.03355249	     -9.75243768	     -4.99073067	      2.91400880	      4.86567385	      0.00000000	     -0.00393100	      0.00000000	      0.58970012	    -11.98723410	      8.10699134	     20.32690869
      0.02916667	     -0.53571743	    -11.42521118	    -14.17234638	     -0.83152037	      0.97533370	      0.32253595	    -24.35108083	     10.35572731	     16.43715508	    -13.36063501	      7.28942377	    -11.93927714	     21.95613470	     26.75402681	    -18.51897994	      1.04888556	     -9.79535114	     -5.03943956	      2.87412578	      4.88535987	      0.00000000	     -0.00466645	      0.00000000	      0.48467892	    -11.78524218	      8.16367331	     20.31915971
      0.03333333	     -0.59827552	    -11.49766900	    -14.27389975	     -0.82534192	      0.97478242	      0.32214438	    -24.19204168	     10.36711291	     16.27542504	    -14.15599910	      6.70600977	    -12.03149330	     21.96093344	     26.42773670	    -18.55543946	      0.91184723	     -9.73450578	     -5.06753718	      2.84975088	      4.96674688	      0.00000000	     -0.00552730	      0.00000000	     -0.10302725	    -11.74289394	      8.23824665	     20.24830359
      0.03750000	     -0.68860330	    -11.51568982	    -14.31507597	     -0.81880844	      0.97422912	      0.32171463	    -24.08257400	     10.34549058	     16.18802520	    -14.77836325	      6.19501618	    -12.10473919	     22.01530688	     26.13009670	    -18.51541157	      0.74045141	     -9.66187492	     -5.05415512	      2.81921817	      5.07324060	      0.00000000	     -0.00634719	      0.00000000	     -0.37819238	    -11.57660337	      8.26493480	     20.20797031
      0.04166667	     -0.87598143	    -11.29156035	    -14.53064211	     -0.81170803	      0.97368987	      0.32172091	    -23.89314724	     10.03467036	     16.16177248	    -15.27725149	      5.40181561	    -12.39070999	     23.00395067	     25.73291339	    -18.35045933	     -0.02703673	     -9.28509420	     -4.86638820	      2.75023680	      5.48249688	      0.00000000	     -0.00717773	      0.00000000	     -0.60669219	    -11.14305230	      8.01487913	     20.33323854
      0.04583333	     -0.89355703	    -11.32128313	    -14.52082625	     -0.80528745	      0.97329097	      0.32124669	    -23.82788167	     10.03732398	     16.15357038	    -15.94129448	      4.99984694	    -12.41638853	     23.07010003	     25.43922669	    -18.28911978	     -0.03696595	     -9.36174433	     -4.90926766	      2.73807942	      5.50913350	      0.00000000	     -0.00797654	      0.00000000	     -0.90058946	    -11.07779153	      8.02286113	     20.27711376
